<svg width="319" height="136" xmlns="http://www.w3.org/2000/svg"><g fill="none" fill-rule="evenodd"><path d="M159.5 27.24l-21.276 11.014L135 36.31l9.671-4.86V24h3.868v5.507L159.5 24 184 36.31l-3.224 1.944L159.5 27.239zm-18.697 12.957L159.5 30.48l19.342 9.718v24.62h-38.04v-24.62zm10.96 3.24v12.31h5.803v-12.31h-5.803zm9.671 0v12.31h5.803v-12.31h-5.803zm-20.552 23.971h37.88l2.66 2.592h-43.198l2.658-2.592z" stroke="#0379DA" fill="#0379DA"/><path d="M25 108.114V87.886c0-.305.24-.58.54-.58h7.1c5.784 0 10.518 4.797 10.518 10.663 0 5.928-4.734 10.725-10.517 10.725h-7.102c-.3 0-.539-.275-.539-.58zm3.865-3.147h3.416c3.896 0 6.742-2.995 6.742-6.998 0-3.972-2.846-6.966-6.742-6.966h-3.416v13.964zm17.54 3.727c-.45 0-.69-.397-.51-.794l9.32-20.564c.09-.183.239-.336.509-.336h.3c.299 0 .419.153.509.336l9.229 20.564c.18.397-.06.794-.51.794h-2.607c-.45 0-.659-.183-.869-.61l-1.468-3.3h-8.96l-1.467 3.3c-.12.305-.39.61-.87.61h-2.606zm6.412-7.302h6.023l-2.997-6.723h-.09l-2.936 6.723zm17.36 6.722V87.886c0-.305.27-.58.569-.58h2.786c.33 0 .57.275.57.58v8.097h9.768v-8.097c0-.305.24-.58.57-.58h2.756c.3 0 .57.275.57.58v20.228c0 .305-.27.58-.57.58H84.44a.575.575 0 0 1-.57-.58V99.68h-9.768v8.433c0 .305-.24.58-.57.58h-2.786c-.3 0-.57-.275-.57-.58zm24.73 0V87.886c0-.305.24-.58.57-.58h2.756c.3 0 .57.275.57.58v17.142h7.64c.33 0 .57.275.57.58v2.506c0 .305-.24.58-.57.58H95.476a.575.575 0 0 1-.569-.58zm16.82 0V87.886c0-.305.27-.58.57-.58h2.786c.3 0 .57.275.57.58v20.228c0 .305-.27.58-.57.58h-2.786c-.3 0-.57-.275-.57-.58zm8.85.58c-.45 0-.69-.397-.51-.794l9.32-20.564c.09-.183.239-.336.509-.336h.3c.299 0 .419.153.509.336l9.229 20.564c.18.397-.06.794-.51.794h-2.607c-.449 0-.659-.183-.868-.61l-1.469-3.3h-8.96l-1.467 3.3c-.12.305-.39.61-.87.61h-2.606zm6.412-7.302h6.023l-2.996-6.723h-.09l-2.937 6.723zm22.294 6.722V87.886c0-.305.24-.58.569-.58h7.042c3.685 0 6.712 3.055 6.712 6.752 0 3.79-3.027 6.875-6.682 6.875h-3.746v7.18c0 .306-.27.581-.57.581h-2.756a.575.575 0 0 1-.57-.58zm3.895-10.908h3.476c1.678 0 3.086-1.375 3.086-3.178 0-1.68-1.408-2.964-3.086-2.964h-3.476v6.142zm11.626 11.488c-.45 0-.689-.397-.51-.794l9.32-20.564c.09-.183.24-.336.51-.336h.299c.3 0 .42.153.51.336l9.228 20.564c.18.397-.06.794-.509.794h-2.607c-.45 0-.66-.183-.869-.61l-1.468-3.3h-8.96l-1.468 3.3c-.12.305-.39.61-.869.61h-2.607zm6.413-7.302h6.023l-2.997-6.723h-.09l-2.936 6.723zm15.671 6.722V87.886c0-.305.24-.58.57-.58h8.57c3.595 0 6.532 2.933 6.532 6.569 0 2.811-1.828 5.103-4.435 6.172l4.105 7.761c.21.398 0 .886-.51.886h-3.146a.512.512 0 0 1-.48-.275l-3.984-8.097h-3.326v7.792c0 .305-.27.58-.57.58h-2.757a.575.575 0 0 1-.569-.58zm3.925-11.061h4.885c1.588 0 2.966-1.406 2.966-3.117 0-1.62-1.378-2.964-2.966-2.964h-4.885v6.08zm18.848 11.06v-17.14h-4.584a.575.575 0 0 1-.57-.581v-2.506c0-.305.24-.58.57-.58h13.094c.33 0 .57.275.57.58v2.506c0 .305-.24.58-.57.58h-4.585v17.142c0 .305-.27.58-.569.58h-2.787c-.3 0-.569-.275-.569-.58zm12.196 0V87.55c0-.306.27-.55.569-.55h.75l12.464 13.506h.03v-12.62c0-.305.24-.58.57-.58h2.756c.3 0 .57.275.57.58v20.564c0 .306-.27.55-.57.55h-.719l-12.525-14.025h-.03v13.139c0 .305-.24.58-.57.58h-2.726c-.3 0-.57-.275-.57-.58zm23.162 0V87.887c0-.305.24-.58.57-.58h12.195c.33 0 .57.275.57.58v2.506c0 .305-.24.58-.57.58h-8.87v5.011h7.402c.3 0 .57.275.57.58V99.1c0 .336-.27.58-.57.58h-7.401v5.348h8.87c.329 0 .568.275.568.58v2.506c0 .305-.24.58-.569.58H245.59a.575.575 0 0 1-.57-.58zm17.62 0V87.887c0-.305.24-.58.569-.58h8.57c3.595 0 6.532 2.933 6.532 6.569 0 2.811-1.828 5.103-4.435 6.172l4.105 7.761c.21.398 0 .886-.51.886h-3.145a.512.512 0 0 1-.48-.275l-3.985-8.097h-3.326v7.792c0 .305-.27.58-.57.58h-2.756a.575.575 0 0 1-.57-.58zm3.925-11.06h4.884c1.588 0 2.966-1.406 2.966-3.117 0-1.62-1.378-2.964-2.966-2.964h-4.884v6.08zm14.952 9.564c-.27-.275-.42-.428-.15-.917l1.079-1.894a.687.687 0 0 1 1.019-.214c.15.091 2.577 1.894 4.524 1.894 1.558 0 2.727-1.039 2.727-2.353 0-1.558-1.288-2.627-3.805-3.666-2.817-1.161-5.634-2.995-5.634-6.6 0-2.72 1.978-5.867 6.742-5.867 3.057 0 5.394 1.589 5.993 2.047.3.184.39.703.18 1.009l-1.139 1.741c-.24.367-.689.611-1.048.367-.24-.153-2.517-1.68-4.166-1.68-1.707 0-2.636 1.16-2.636 2.138 0 1.436 1.108 2.414 3.535 3.422 2.907 1.192 6.263 2.964 6.263 6.906 0 3.147-2.667 6.05-6.892 6.05-3.775 0-5.993-1.803-6.592-2.383z" fill="#333"/></g></svg>