<?xml version="1.0" encoding="UTF-8"?>
<svg width="319px" height="136px" viewBox="0 0 319 136" version="1.1" xmlns="http://www.w3.org/2000/svg" xmlns:xlink="http://www.w3.org/1999/xlink">
    <!-- Generator: Sketch 52.2 (67145) - http://www.bohemiancoding.com/sketch -->
    <title>Artboard</title>
    <desc>Created with Sketch.</desc>
    <g id="Artboard" stroke="none" stroke-width="1" fill="none" fill-rule="evenodd">
        <g id="Group" transform="translate(25.000000, 24.000000)">
            <path d="M134.5,3.23943662 L113.223684,14.2535211 L110,12.3098592 L119.671053,7.45070423 L119.671053,0 L123.539474,0 L123.539474,5.50704225 L134.5,0 L159,12.3098592 L155.776316,14.2535211 L134.5,3.23943662 Z M115.802632,16.1971831 L134.5,6.47887324 L153.842105,16.1971831 L153.842105,40.8169014 L115.802632,40.8169014 L115.802632,16.1971831 Z M126.763158,19.4366197 L126.763158,31.7464789 L132.565789,31.7464789 L132.565789,19.4366197 L126.763158,19.4366197 Z M136.434211,19.4366197 L136.434211,31.7464789 L142.236842,31.7464789 L142.236842,19.4366197 L136.434211,19.4366197 Z M115.881984,43.4084507 L153.762753,43.4084507 L156.421053,46 L113.223684,46 L115.881984,43.4084507 Z" id="Combined-Shape" stroke="#0379DA" fill="#0379DA"></path>
            <path d="M0,84.1138889 L0,63.8861111 C0,63.5805556 0.239715892,63.3055556 0.539360757,63.3055556 L7.64094406,63.3055556 C13.42409,63.3055556 18.1584788,68.1027778 18.1584788,73.9694444 C18.1584788,79.8972222 13.42409,84.6944444 7.64094406,84.6944444 L0.539360757,84.6944444 C0.239715892,84.6944444 0,84.4194444 0,84.1138889 Z M3.86541876,80.9666667 L7.28137022,80.9666667 C11.1767535,80.9666667 14.0233797,77.9722222 14.0233797,73.9694444 C14.0233797,69.9972222 11.1767535,67.0027778 7.28137022,67.0027778 L3.86541876,67.0027778 L3.86541876,80.9666667 Z M21.4046316,84.6944444 C20.9551643,84.6944444 20.7154484,84.2972222 20.8952353,83.9 L30.2141906,63.3361111 C30.3040841,63.1527778 30.4539065,63 30.7235869,63 L31.0232317,63 C31.3228766,63 31.4427346,63.1527778 31.532628,63.3361111 L40.7616899,83.9 C40.9414768,84.2972222 40.7017609,84.6944444 40.2522936,84.6944444 L37.6453833,84.6944444 C37.195916,84.6944444 36.9861646,84.5111111 36.7764132,84.0833333 L35.3081533,80.7833333 L26.3487719,80.7833333 L24.880512,84.0833333 C24.7606541,84.3888889 24.4909737,84.6944444 24.0115419,84.6944444 L21.4046316,84.6944444 Z M27.8170317,77.3916667 L33.8398935,77.3916667 L30.8434448,70.6694444 L30.7535514,70.6694444 L27.8170317,77.3916667 Z M45.1764576,84.1138889 L45.1764576,63.8861111 C45.1764576,63.5805556 45.446138,63.3055556 45.7457828,63.3055556 L48.5324801,63.3055556 C48.8620894,63.3055556 49.1018053,63.5805556 49.1018053,63.8861111 L49.1018053,71.9833333 L58.8702279,71.9833333 L58.8702279,63.8861111 C58.8702279,63.5805556 59.1099438,63.3055556 59.4395532,63.3055556 L62.1962859,63.3055556 C62.4959308,63.3055556 62.7656112,63.5805556 62.7656112,63.8861111 L62.7656112,84.1138889 C62.7656112,84.4194444 62.4959308,84.6944444 62.1962859,84.6944444 L59.4395532,84.6944444 C59.1099438,84.6944444 58.8702279,84.4194444 58.8702279,84.1138889 L58.8702279,75.6805556 L49.1018053,75.6805556 L49.1018053,84.1138889 C49.1018053,84.4194444 48.8620894,84.6944444 48.5324801,84.6944444 L45.7457828,84.6944444 C45.446138,84.6944444 45.1764576,84.4194444 45.1764576,84.1138889 Z M69.9071472,84.1138889 L69.9071472,63.8861111 C69.9071472,63.5805556 70.1468631,63.3055556 70.4764724,63.3055556 L73.2332052,63.3055556 C73.53285,63.3055556 73.8025304,63.5805556 73.8025304,63.8861111 L73.8025304,81.0277778 L81.4434745,81.0277778 C81.7730838,81.0277778 82.0127997,81.3027778 82.0127997,81.6083333 L82.0127997,84.1138889 C82.0127997,84.4194444 81.7730838,84.6944444 81.4434745,84.6944444 L70.4764724,84.6944444 C70.1468631,84.6944444 69.9071472,84.4194444 69.9071472,84.1138889 Z M86.7272123,84.1138889 L86.7272123,63.8861111 C86.7272123,63.5805556 86.9968927,63.3055556 87.2965376,63.3055556 L90.0832348,63.3055556 C90.3828797,63.3055556 90.6525601,63.5805556 90.6525601,63.8861111 L90.6525601,84.1138889 C90.6525601,84.4194444 90.3828797,84.6944444 90.0832348,84.6944444 L87.2965376,84.6944444 C86.9968927,84.6944444 86.7272123,84.4194444 86.7272123,84.1138889 Z M95.5767241,84.6944444 C95.1272568,84.6944444 94.8875409,84.2972222 95.0673278,83.9 L104.386283,63.3361111 C104.476177,63.1527778 104.625999,63 104.895679,63 L105.195324,63 C105.494969,63 105.614827,63.1527778 105.704721,63.3361111 L114.933782,83.9 C115.113569,84.2972222 114.873853,84.6944444 114.424386,84.6944444 L111.817476,84.6944444 C111.368008,84.6944444 111.158257,84.5111111 110.948506,84.0833333 L109.480246,80.7833333 L100.520864,80.7833333 L99.0526045,84.0833333 C98.9327466,84.3888889 98.6630662,84.6944444 98.1836344,84.6944444 L95.5767241,84.6944444 Z M101.989124,77.3916667 L108.011986,77.3916667 L105.015537,70.6694444 L104.925644,70.6694444 L101.989124,77.3916667 Z M124.282702,84.1138889 L124.282702,63.8861111 C124.282702,63.5805556 124.522418,63.3055556 124.852027,63.3055556 L131.893682,63.3055556 C135.579314,63.3055556 138.605727,66.3611111 138.605727,70.0583333 C138.605727,73.8472222 135.579314,76.9333333 131.923646,76.9333333 L128.178085,76.9333333 L128.178085,84.1138889 C128.178085,84.4194444 127.908405,84.6944444 127.60876,84.6944444 L124.852027,84.6944444 C124.522418,84.6944444 124.282702,84.4194444 124.282702,84.1138889 Z M128.178085,73.2055556 L131.653966,73.2055556 C133.331977,73.2055556 134.740308,71.8305556 134.740308,70.0277778 C134.740308,68.3472222 133.331977,67.0638889 131.653966,67.0638889 L128.178085,67.0638889 L128.178085,73.2055556 Z M139.804306,84.6944444 C139.354839,84.6944444 139.115123,84.2972222 139.29491,83.9 L148.613865,63.3361111 C148.703759,63.1527778 148.853581,63 149.123261,63 L149.422906,63 C149.722551,63 149.842409,63.1527778 149.932303,63.3361111 L159.161364,83.9 C159.341151,84.2972222 159.101435,84.6944444 158.651968,84.6944444 L156.045058,84.6944444 C155.595591,84.6944444 155.385839,84.5111111 155.176088,84.0833333 L153.707828,80.7833333 L144.748446,80.7833333 L143.280187,84.0833333 C143.160329,84.3888889 142.890648,84.6944444 142.411216,84.6944444 L139.804306,84.6944444 Z M146.216706,77.3916667 L152.239568,77.3916667 L149.243119,70.6694444 L149.153226,70.6694444 L146.216706,77.3916667 Z M161.888133,84.1138889 L161.888133,63.8861111 C161.888133,63.5805556 162.127849,63.3055556 162.457458,63.3055556 L171.027301,63.3055556 C174.623039,63.3055556 177.559559,66.2388889 177.559559,69.875 C177.559559,72.6861111 175.731725,74.9777778 173.124815,76.0472222 L177.22995,83.8083333 C177.439701,84.2055556 177.22995,84.6944444 176.720554,84.6944444 L173.574282,84.6944444 C173.304602,84.6944444 173.15478,84.5416667 173.094851,84.4194444 L169.109574,76.3222222 L165.783516,76.3222222 L165.783516,84.1138889 C165.783516,84.4194444 165.513836,84.6944444 165.214191,84.6944444 L162.457458,84.6944444 C162.127849,84.6944444 161.888133,84.4194444 161.888133,84.1138889 Z M165.81348,73.0527778 L170.697692,73.0527778 C172.28581,73.0527778 173.664176,71.6472222 173.664176,69.9361111 C173.664176,68.3166667 172.28581,66.9722222 170.697692,66.9722222 L165.81348,66.9722222 L165.81348,73.0527778 Z M184.661142,84.1138889 L184.661142,66.9722222 L180.076576,66.9722222 C179.746967,66.9722222 179.507251,66.6972222 179.507251,66.3916667 L179.507251,63.8861111 C179.507251,63.5805556 179.746967,63.3055556 180.076576,63.3055556 L193.171057,63.3055556 C193.500666,63.3055556 193.740382,63.5805556 193.740382,63.8861111 L193.740382,66.3916667 C193.740382,66.6972222 193.500666,66.9722222 193.171057,66.9722222 L188.58649,66.9722222 L188.58649,84.1138889 C188.58649,84.4194444 188.31681,84.6944444 188.017165,84.6944444 L185.230468,84.6944444 C184.930823,84.6944444 184.661142,84.4194444 184.661142,84.1138889 Z M196.856688,84.1138889 L196.856688,63.55 C196.856688,63.2444444 197.126369,63 197.426014,63 L198.175126,63 L210.640352,76.5055556 L210.670317,76.5055556 L210.670317,63.8861111 C210.670317,63.5805556 210.910033,63.3055556 211.239642,63.3055556 L213.996375,63.3055556 C214.29602,63.3055556 214.5657,63.5805556 214.5657,63.8861111 L214.5657,84.45 C214.5657,84.7555556 214.29602,85 213.996375,85 L213.277227,85 L200.752072,70.975 L200.722107,70.975 L200.722107,84.1138889 C200.722107,84.4194444 200.482391,84.6944444 200.152782,84.6944444 L197.426014,84.6944444 C197.126369,84.6944444 196.856688,84.4194444 196.856688,84.1138889 Z M220.019237,84.1138889 L220.019237,63.8861111 C220.019237,63.5805556 220.258952,63.3055556 220.588562,63.3055556 L232.784108,63.3055556 C233.113717,63.3055556 233.353433,63.5805556 233.353433,63.8861111 L233.353433,66.3916667 C233.353433,66.6972222 233.113717,66.9722222 232.784108,66.9722222 L223.91462,66.9722222 L223.91462,71.9833333 L231.315848,71.9833333 C231.615493,71.9833333 231.885173,72.2583333 231.885173,72.5638889 L231.885173,75.1 C231.885173,75.4361111 231.615493,75.6805556 231.315848,75.6805556 L223.91462,75.6805556 L223.91462,81.0277778 L232.784108,81.0277778 C233.113717,81.0277778 233.353433,81.3027778 233.353433,81.6083333 L233.353433,84.1138889 C233.353433,84.4194444 233.113717,84.6944444 232.784108,84.6944444 L220.588562,84.6944444 C220.258952,84.6944444 220.019237,84.4194444 220.019237,84.1138889 Z M237.638355,84.1138889 L237.638355,63.8861111 C237.638355,63.5805556 237.87807,63.3055556 238.20768,63.3055556 L246.777523,63.3055556 C250.373261,63.3055556 253.309781,66.2388889 253.309781,69.875 C253.309781,72.6861111 251.481947,74.9777778 248.875037,76.0472222 L252.980172,83.8083333 C253.189923,84.2055556 252.980172,84.6944444 252.470775,84.6944444 L249.324504,84.6944444 C249.054824,84.6944444 248.905002,84.5416667 248.845073,84.4194444 L244.859796,76.3222222 L241.533738,76.3222222 L241.533738,84.1138889 C241.533738,84.4194444 241.264057,84.6944444 240.964413,84.6944444 L238.20768,84.6944444 C237.87807,84.6944444 237.638355,84.4194444 237.638355,84.1138889 Z M241.563702,73.0527778 L246.447914,73.0527778 C248.036031,73.0527778 249.414398,71.6472222 249.414398,69.9361111 C249.414398,68.3166667 248.036031,66.9722222 246.447914,66.9722222 L241.563702,66.9722222 L241.563702,73.0527778 Z M256.515981,82.6166667 C256.246301,82.3416667 256.096478,82.1888889 256.366159,81.7 L257.44488,79.8055556 C257.684596,79.3777778 258.193992,79.3777778 258.463673,79.5916667 C258.613495,79.6833333 261.040619,81.4861111 262.98831,81.4861111 C264.546463,81.4861111 265.715078,80.4472222 265.715078,79.1333333 C265.715078,77.575 264.426606,76.5055556 261.909589,75.4666667 C259.092927,74.3055556 256.276265,72.4722222 256.276265,68.8666667 C256.276265,66.1472222 258.253921,63 263.018275,63 C266.074652,63 268.411882,64.5888889 269.011172,65.0472222 C269.310817,65.2305556 269.40071,65.75 269.190959,66.0555556 L268.052308,67.7972222 C267.812592,68.1638889 267.363125,68.4083333 267.003551,68.1638889 C266.763835,68.0111111 264.486534,66.4833333 262.838488,66.4833333 C261.130512,66.4833333 260.201613,67.6444444 260.201613,68.6222222 C260.201613,70.0583333 261.310299,71.0361111 263.737422,72.0444444 C266.643978,73.2361111 270,75.0083333 270,78.95 C270,82.0972222 267.333161,85 263.108168,85 C259.332643,85 257.115271,83.1972222 256.515981,82.6166667 Z" id="DAHLIA-PARTNERS" fill="#333333"></path>
        </g>
    </g>
</svg>